<?xml version="1.0" standalone="no"?><!DOCTYPE svg PUBLIC "-//W3C//DTD SVG 1.1//EN"
  "http://www.w3.org/Graphics/SVG/1.1/DTD/svg11.dtd">
<svg t="1606373335402" class="icon" viewBox="0 0 1024 1024" version="1.1" xmlns="http://www.w3.org/2000/svg"
     p-id="12694" width="20" height="18" xmlns:xlink="http://www.w3.org/1999/xlink">
  <defs>
    <style type="text/css"></style>
  </defs>
  <path
    d="M576 988.8h-128c-70.592 0-128-57.408-128-128v-55.68c0-44.512-26.4-112.32-56.48-145.12-2.88-3.2-71.52-79.296-71.52-190.304 0-176.448 143.552-320 320-320s320 143.552 320 320c0 111.04-68.64 187.136-71.52 190.304C730.368 692.768 704 760.608 704 805.12v55.68c0 70.592-57.408 128-128 128zM512 213.696c-141.152 0-256 114.848-256 256 0 86.4 54.144 146.464 54.72 147.072 41.088 44.8 73.28 127.552 73.28 188.384v55.68c0 35.296 28.704 64 64 64h128c35.296 0 64-28.704 64-64v-55.68c0-60.832 32.192-143.552 73.28-188.384 0.48-0.544 54.72-61.6 54.72-147.072 0-141.152-114.848-256-256-256zM640 576a31.968 31.968 0 0 1-30.336-21.888l-15.648-46.88-59.36 59.392a31.968 31.968 0 0 1-45.248 0l-59.392-59.392-15.616 46.88a31.968 31.968 0 1 1-60.704-20.256l32-96a32.064 32.064 0 0 1 52.992-12.512L512 498.752l73.376-73.376a32 32 0 0 1 52.992 12.512l32 96A32 32 0 0 1 640 576z m223.68-319.68a32 32 0 0 1-21.44-55.776l32.512-29.312a32 32 0 0 1 42.88 47.552l-32.512 29.28a31.84 31.84 0 0 1-21.44 8.256z m-703.328 0a31.872 31.872 0 0 1-21.408-8.224l-32.512-29.344a32.064 32.064 0 0 1 42.88-47.552l32.512 29.312a32.064 32.064 0 0 1-21.472 55.808zM512 128a32 32 0 0 1-32-32V64a32 32 0 0 1 64 0v32a32 32 0 0 1-32 32z m64 736h-128a32 32 0 1 1 0-64h128a32 32 0 1 1 0 64z"
    p-id="12695" fill="#FD4C5D"></path>
</svg>