<?xml version="1.0" encoding="UTF-8"?>
<svg width="20px" height="20px" viewBox="0 0 20 20" version="1.1" xmlns="http://www.w3.org/2000/svg" xmlns:xlink="http://www.w3.org/1999/xlink">
    <!-- Generator: Sketch 56.2 (81672) - https://sketch.com -->
    <title>icon_history</title>
    <desc>Created with Sketch.</desc>
    <g id="icon_history" stroke="none" stroke-width="1" fill="none" fill-rule="evenodd">
        <g>
            <rect id="矩形" x="0" y="0" width="20" height="20"></rect>
            <path d="M6.57775216,5.07070298 L6.87574454,5.07590446 C7.28989502,5.08313348 7.61977003,5.42472906 7.61254101,5.83887954 C7.60531198,6.25303001 7.26371641,6.58290503 6.84956593,6.575676 L4.74988577,6.53902595 C4.3357353,6.53179693 4.00586028,6.19020135 4.0130893,5.77605087 C4.01317257,5.77128059 4.0133002,5.76652149 4.01347178,5.76177396 C4.01298034,5.74822057 4.01284978,5.73457802 4.0130893,5.72085581 L4.04973936,3.62117565 C4.05696838,3.20702517 4.39856396,2.87715016 4.81271443,2.88437918 C5.22686491,2.8916082 5.55673992,3.23320378 5.5495109,3.64735426 L5.54393946,3.96654217 C6.81764883,3.02401728 8.36828028,2.5 10,2.5 C14.1421356,2.5 17.5,5.85786438 17.5,10 C17.5,14.1421356 14.1421356,17.5 10,17.5 C5.85786438,17.5 2.5,14.1421356 2.5,10 C2.5,9.39111582 2.57271577,8.79115128 2.7152414,8.20949505 C2.81382154,7.80718319 3.21987473,7.56095998 3.62218659,7.65954011 C4.02449845,7.75812025 4.27072166,8.16417344 4.17214152,8.5664853 C4.05819002,9.03152867 4,9.51164391 4,10 C4,13.3137085 6.6862915,16 10,16 C13.3137085,16 16,13.3137085 16,10 C16,6.6862915 13.3137085,4 10,4 C8.75383059,4 7.5687939,4.38090724 6.57775216,5.07070298 Z M10.5,9.5 L13.25,9.5 C13.6642136,9.5 14,9.83578644 14,10.25 C14,10.6642136 13.6642136,11 13.25,11 L9.75,11 C9.54289322,11 9.35539322,10.9160534 9.21966991,10.7803301 C9.08394661,10.6446068 9,10.4571068 9,10.25 L9,5.75 C9,5.33578644 9.33578644,5 9.75,5 C10.1642136,5 10.5,5.33578644 10.5,5.75 L10.5,9.5 Z" id="合并形状" fill="#909699" fill-rule="nonzero"></path>
            <rect id="矩形" x="0" y="5.68434189e-14" width="20" height="20"></rect>
        </g>
    </g>
</svg>