<?xml version="1.0" encoding="UTF-8"?>
<svg width="20px" height="20px" viewBox="0 0 20 20" version="1.1" xmlns="http://www.w3.org/2000/svg" xmlns:xlink="http://www.w3.org/1999/xlink">
    <!-- Generator: Sketch 59 (86127) - https://sketch.com -->
    <title>icon_search</title>
    <desc>Created with Sketch.</desc>
    <g id="icon_search" stroke="none" stroke-width="1" fill="none" fill-rule="evenodd">
        <rect id="矩形" fill-rule="nonzero" x="0" y="0" width="20" height="20"></rect>
        <g>
            <g id="icon_搜索" transform="translate(3.000000, 3.000000)" fill="#909699" fill-rule="nonzero">
                <path d="M6,0.5 C9.03756612,0.5 11.5,2.96243388 11.5,6 C11.5,7.26960232 11.0698217,8.43873112 10.3472708,9.36958067 C10.4361791,9.40415093 10.5190708,9.45841066 10.5909903,9.53033009 L13.065864,12.0052038 C13.3587572,12.298097 13.3587572,12.7729708 13.065864,13.065864 C12.7729708,13.3587572 12.298097,13.3587572 12.0052038,13.065864 L9.53033009,10.5909903 C9.45841066,10.5190708 9.40415093,10.4361791 9.36755089,10.3477035 C8.43873112,11.0698217 7.26960232,11.5 6,11.5 C2.96243388,11.5 0.5,9.03756612 0.5,6 C0.5,2.96243388 2.96243388,0.5 6,0.5 Z M6,2 C3.790861,2 2,3.790861 2,6 C2,8.209139 3.790861,10 6,10 C8.209139,10 10,8.209139 10,6 C10,3.790861 8.209139,2 6,2 Z" id="形状结合"></path>
            </g>
            <rect id="矩形" x="0" y="0" width="20" height="20"></rect>
        </g>
    </g>
</svg>