<?xml version="1.0" standalone="no"?><!DOCTYPE svg PUBLIC "-//W3C//DTD SVG 1.1//EN"
  "http://www.w3.org/Graphics/SVG/1.1/DTD/svg11.dtd">
<svg t="1607516597442" class="icon" viewBox="0 0 1024 1024" version="1.1" xmlns="http://www.w3.org/2000/svg" p-id="3555"
     xmlns:xlink="http://www.w3.org/1999/xlink" width="20" height="20">
  <defs>
    <style type="text/css"></style>
  </defs>
  <path
    d="M512 128C299.912533 128 128 299.963733 128 512.017067S299.912533 896 512 896s384-171.912533 384-383.982933C896 299.963733 724.087467 128 512 128z m39.185067 597.6064c0 7.3728-5.973333 13.346133-13.346134 13.346133h-51.643733a13.346133 13.346133 0 0 1-13.346133-13.346133V477.610667c0-7.3728 5.973333-13.346133 13.346133-13.346134h51.643733c7.3728 0 13.346133 5.973333 13.346134 13.346134v247.995733zM511.675733 408.917333c-25.2928 0-46.267733-20.974933-46.267733-46.882133s20.974933-46.267733 46.267733-46.267733c25.924267 0 46.882133 20.343467 46.882134 46.267733s-20.974933 46.882133-46.882134 46.882133z"
    p-id="3556" data-spm-anchor-id="a313x.7781069.0.i9" class="selected" fill="#ffffff"></path>
</svg>